<svg width="48" height="48" viewBox="0 0 48 48" fill="none" xmlns="http://www.w3.org/2000/svg">
<path d="M42.8739 37.0105C42.4342 36.7957 41.9569 36.6744 41.4704 36.6538C40.984 36.6332 40.4985 36.7137 40.0431 36.8905L34.6339 38.9747C33.2306 39.5169 31.7041 39.6288 30.24 39.2968L29.3292 39.0884C29.8013 38.395 30.0195 37.5527 29.9452 36.7102C29.8709 35.8677 29.5089 35.0793 28.9231 34.4842L24.7385 30.1895C23.8564 29.2794 22.8071 28.558 21.6515 28.0669C20.4959 27.5758 19.2569 27.3248 18.0062 27.3284H6.65232V25.7747C6.65232 25.5235 6.55507 25.2825 6.38196 25.1048C6.20885 24.9272 5.97406 24.8273 5.72924 24.8273H1.07078C0.825967 24.8273 0.591178 24.9272 0.418068 25.1048C0.244957 25.2825 0.147705 25.5235 0.147705 25.7747C0.147705 26.026 0.244957 26.2669 0.418068 26.4446C0.591178 26.6223 0.825967 26.7221 1.07078 26.7221H4.80617V42.3158H1.07078C0.825967 42.3158 0.591178 42.4156 0.418068 42.5932C0.244957 42.7709 0.147705 43.0119 0.147705 43.2631C0.147705 43.5144 0.244957 43.7554 0.418068 43.933C0.591178 44.1107 0.825967 44.2105 1.07078 44.2105H5.72924C5.97406 44.2105 6.20885 44.1107 6.38196 43.933C6.55507 43.7554 6.65232 43.5144 6.65232 43.2631V41.7347H7.61232C8.60948 41.7402 9.58929 42.003 10.4616 42.4989L18.0123 46.8C19.3839 47.5851 20.928 47.9982 22.4985 48H30.0492C31.4165 48.0002 32.7722 47.7433 34.0492 47.2421L42.6154 43.8884C43.2838 43.6278 43.8628 43.1711 44.28 42.5752C44.6973 41.9793 44.9345 41.2705 44.9621 40.5372C44.9897 39.8039 44.8063 39.0785 44.435 38.4514C44.0637 37.8243 43.5207 37.3232 42.8739 37.0105ZM41.9569 42.1137L33.3969 45.4737C32.328 45.8924 31.1934 46.1065 30.0492 46.1052H22.4985C21.2519 46.1032 20.0261 45.7773 18.9354 45.1579L11.3846 40.8442C10.2303 40.1871 8.93231 39.8416 7.61232 39.84H6.65232V29.2231H18.0123C19.0206 29.22 20.0195 29.4221 20.9512 29.8178C21.8828 30.2135 22.7288 30.7949 23.44 31.5284L27.6246 35.8295C27.7791 35.9878 27.9016 36.1759 27.9852 36.3829C28.0688 36.5898 28.1118 36.8117 28.1118 37.0358C28.1118 37.2598 28.0688 37.4817 27.9852 37.6887C27.9016 37.8957 27.7791 38.0837 27.6246 38.2421C27.3077 38.5518 26.8868 38.7245 26.4492 38.7245C26.0116 38.7245 25.5908 38.5518 25.2739 38.2421L21.7908 34.6673C21.6135 34.5196 21.3892 34.4446 21.1612 34.4567C20.9332 34.4688 20.7176 34.5672 20.5562 34.7329C20.3947 34.8986 20.2988 35.1198 20.287 35.3538C20.2753 35.5879 20.3484 35.8181 20.4923 36L24 39.581C24.4213 40.0209 24.9475 40.3398 25.5262 40.506C26.1049 40.6722 26.7159 40.6799 27.2985 40.5284C27.3683 40.5676 27.4427 40.5973 27.52 40.6168L29.8708 41.1473C31.6834 41.5587 33.5734 41.4205 35.3108 40.7495L40.72 38.6652C41.1539 38.5438 41.6164 38.5937 42.0161 38.8051C42.4159 39.0166 42.7239 39.3742 42.8793 39.8073C43.0346 40.2405 43.0261 40.7177 42.8553 41.1447C42.6846 41.5717 42.364 41.9174 41.9569 42.1137Z" fill="#6A151B"/>
<path d="M47.28 8.66522C45.9369 8.1032 44.4991 7.81831 43.0487 7.82682C41.5984 7.83532 40.1638 8.13706 38.8271 8.71479C37.4904 9.29253 36.2777 10.1349 35.2583 11.1939C34.2389 12.2528 33.4329 13.5075 32.8862 14.8863L32.4 16.1178V12.4168C32.3972 12.2714 32.3614 12.1287 32.2954 12C32.2954 12 32.2954 11.9494 32.2954 11.9242L30.3508 7.07364C29.2453 4.29015 27.108 2.07117 24.4088 0.904574C21.7096 -0.262019 18.6695 -0.280718 15.9569 0.852586C15.8415 0.899527 15.7364 0.969899 15.6481 1.05949C15.5597 1.14908 15.4899 1.25605 15.4428 1.37399C15.3957 1.49192 15.3722 1.61841 15.3739 1.74586C15.3755 1.87332 15.4022 1.99912 15.4523 2.11574L17.3723 6.94732C18.2069 9.03234 19.6266 10.8157 21.451 12.0707C23.2754 13.3257 25.4221 13.9958 27.6185 13.9957C28.6108 13.9938 29.5983 13.8536 30.5538 13.5789V33.5684C30.5538 33.8196 30.6511 34.0606 30.8242 34.2383C30.9973 34.4159 31.2321 34.5157 31.4769 34.5157C31.7217 34.5157 31.9565 34.4159 32.1296 34.2383C32.3027 34.0606 32.4 33.8196 32.4 33.5684V21.3031C35.0357 22.1353 37.8796 21.9237 40.3709 20.7102C42.8622 19.4967 44.8201 17.3692 45.8585 14.7473L47.7846 9.8968C47.8761 9.66474 47.8744 9.40494 47.7799 9.17417C47.6853 8.9434 47.5056 8.76042 47.28 8.66522ZM19.0769 6.22101L17.52 2.29259C19.7066 1.63295 22.0539 1.82978 24.1072 2.84493C26.1605 3.86008 27.7735 5.62128 28.6338 7.78732L29.4031 9.73258L24.3754 6.22101C24.173 6.07946 23.9241 6.02623 23.6835 6.07302C23.4429 6.1198 23.2302 6.26277 23.0923 6.47048C22.9544 6.67819 22.9025 6.93361 22.9481 7.18057C22.9937 7.42752 23.133 7.64578 23.3354 7.78732L29.28 11.9368C27.1986 12.3287 25.0492 11.9747 23.1917 10.9342C21.3343 9.89364 19.8816 8.22969 19.0769 6.22101ZM44.1477 14.0336C43.343 16.0423 41.8903 17.7063 40.0329 18.7468C38.1754 19.7874 36.026 20.1413 33.9446 19.7494L39.8892 15.6C39.9894 15.5299 40.0752 15.4402 40.1417 15.3361C40.2081 15.232 40.2539 15.1155 40.2765 14.9932C40.2991 14.8709 40.298 14.7453 40.2732 14.6234C40.2485 14.5016 40.2006 14.386 40.1323 14.2831C40.064 14.1803 39.9767 14.0922 39.8752 14.024C39.7738 13.9558 39.6603 13.9088 39.5411 13.8856C39.422 13.8625 39.2995 13.8636 39.1808 13.889C39.0621 13.9144 38.9494 13.9636 38.8492 14.0336L33.8461 17.5452L34.6154 15.6C35.4754 13.4381 37.0855 11.68 39.1346 10.6652C41.1838 9.65038 43.5267 9.45088 45.7108 10.1052L44.1477 14.0336Z" fill="#6A151B"/>
</svg>
