<svg width="48" height="48" viewBox="0 0 48 48" fill="none" xmlns="http://www.w3.org/2000/svg">
<path d="M46.4 42.2069H45.6V1.65518C45.6 1.19835 45.2416 0.827591 44.8 0.827591H3.19999C2.75839 0.827591 2.39999 1.19835 2.39999 1.65518V42.2069H1.59999C1.15839 42.2069 0.799988 42.5777 0.799988 43.0345V46.3448C0.799988 46.8017 1.15839 47.1724 1.59999 47.1724H46.4C46.8416 47.1724 47.2 46.8017 47.2 46.3448V43.0345C47.2 42.5777 46.8416 42.2069 46.4 42.2069ZM3.99999 33.1035V21.5172V2.48276H44V28.1379V42.2069H39.2V33.1035V21.5172V13.2414C39.2 12.7846 38.8416 12.4138 38.4 12.4138H9.59999C9.15839 12.4138 8.79999 12.7846 8.79999 13.2414V28.1379V42.2069H3.99999V33.1035ZM18.4 36.4138C18.4 35.4075 19.0304 33.7606 19.5152 32.6665C19.8752 32.9263 20.3312 33.269 20.7968 33.653C20.9872 33.8086 21.232 33.8698 21.4736 33.8119C21.7088 33.7556 21.9088 33.5917 22.016 33.3666C23.0768 31.1024 25.6496 27.9095 26.9744 26.3371C27.9984 28.7851 29.6 32.9859 29.6 34.7586C29.6 36.8011 28.1584 38.4927 26.2736 38.8254C26.3488 38.5854 26.4 38.3355 26.4 38.069C26.4 37.0113 25.1808 35.0731 24.6576 34.2886C24.36 33.84 23.6384 33.84 23.3424 34.2886C22.8192 35.0731 21.6 37.0113 21.6 38.069C21.6 38.3603 21.6576 38.6367 21.7472 38.8966H20.8C19.4768 38.8966 18.4 37.7826 18.4 36.4138ZM23.2 38.069C23.2064 37.8157 23.5392 37.0957 24 36.2913C24.4608 37.0941 24.7936 37.8141 24.8 38.0673C24.8 38.5241 24.44 38.8949 24 38.8949C23.56 38.8949 23.2 38.5258 23.2 38.069ZM20.8 40.5517H25.6H31.2V42.2069H16.8V40.5517H20.8ZM32 38.8966H29.5072C30.5488 37.8439 31.2 36.3807 31.2 34.7586C31.2 31.9117 28.2608 25.2331 27.9264 24.4817C27.8144 24.2301 27.5888 24.0546 27.3232 24.0099C27.0624 23.9669 26.792 24.0646 26.6112 24.2681C26.4448 24.4552 22.84 28.5252 21.0352 31.7561C20.2608 31.1669 19.6624 30.7713 19.6288 30.7515C19.4416 30.6257 19.2128 30.5859 18.9952 30.6505C18.7792 30.7101 18.5984 30.859 18.4944 31.0643C18.3184 31.4036 16.8 34.4458 16.8 36.4138C16.8 37.349 17.112 38.203 17.6208 38.8966H16C15.5584 38.8966 15.2 39.2673 15.2 39.7241V42.2069H13.6V17.3793H34.4V42.2069H32.8V39.7241C32.8 39.2673 32.4416 38.8966 32 38.8966ZM35.2 15.7241H12.8C12.3584 15.7241 12 16.0949 12 16.5517V42.2069H10.4V14.069H37.6V42.2069H36V16.5517C36 16.0949 35.6416 15.7241 35.2 15.7241ZM45.6 45.5172H2.39999V43.8621H3.19999H9.59999H12.8H16H32H35.2H38.4H44.8H45.6V45.5172Z" fill="#6A151B"/>
<path d="M8.00001 5.79311H12.8C13.2416 5.79311 13.6 5.42235 13.6 4.96553C13.6 4.5087 13.2416 4.13794 12.8 4.13794H8.00001C7.55841 4.13794 7.20001 4.5087 7.20001 4.96553C7.20001 5.42235 7.55841 5.79311 8.00001 5.79311Z" fill="#6A151B"/>
<path d="M12 8.27587C12 8.73269 12.3584 9.10345 12.8 9.10345H14.4C14.8416 9.10345 15.2 8.73269 15.2 8.27587C15.2 7.81904 14.8416 7.44828 14.4 7.44828H12.8C12.3584 7.44828 12 7.81904 12 8.27587Z" fill="#6A151B"/>
<path d="M17.6 5.79311H22.4C22.8416 5.79311 23.2 5.42235 23.2 4.96553C23.2 4.5087 22.8416 4.13794 22.4 4.13794H17.6C17.1584 4.13794 16.8 4.5087 16.8 4.96553C16.8 5.42235 17.1584 5.79311 17.6 5.79311Z" fill="#6A151B"/>
<path d="M25.6 9.10345H28.8C29.2416 9.10345 29.6 8.73269 29.6 8.27587C29.6 7.81904 29.2416 7.44828 28.8 7.44828H25.6C25.1584 7.44828 24.8 7.81904 24.8 8.27587C24.8 8.73269 25.1584 9.10345 25.6 9.10345Z" fill="#6A151B"/>
<path d="M30.4 5.79311H32C32.4416 5.79311 32.8 5.42235 32.8 4.96553C32.8 4.5087 32.4416 4.13794 32 4.13794H30.4C29.9584 4.13794 29.6 4.5087 29.6 4.96553C29.6 5.42235 29.9584 5.79311 30.4 5.79311Z" fill="#6A151B"/>
<path d="M35.2 10.7586H40C40.4416 10.7586 40.8 10.3879 40.8 9.93104C40.8 9.47421 40.4416 9.10345 40 9.10345H35.2C34.7584 9.10345 34.4 9.47421 34.4 9.93104C34.4 10.3879 34.7584 10.7586 35.2 10.7586Z" fill="#6A151B"/>
<path d="M4.8 22.3448H6.4C6.8416 22.3448 7.2 21.9741 7.2 21.5172C7.2 21.0604 6.8416 20.6897 6.4 20.6897H4.8C4.3584 20.6897 4 21.0604 4 21.5172C4 21.9741 4.3584 22.3448 4.8 22.3448Z" fill="#6A151B"/>
<path d="M7.99998 27.3103H6.39998C5.95838 27.3103 5.59998 27.6811 5.59998 28.1379C5.59998 28.5948 5.95838 28.9655 6.39998 28.9655H7.99998C8.44158 28.9655 8.79998 28.5948 8.79998 28.1379C8.79998 27.6811 8.44158 27.3103 7.99998 27.3103Z" fill="#6A151B"/>
<path d="M4.8 33.931H6.4C6.8416 33.931 7.2 33.5603 7.2 33.1035C7.2 32.6466 6.8416 32.2759 6.4 32.2759H4.8C4.3584 32.2759 4 32.6466 4 33.1035C4 33.5603 4.3584 33.931 4.8 33.931Z" fill="#6A151B"/>
<path d="M40 22.3448H41.6C42.0416 22.3448 42.4 21.9741 42.4 21.5172C42.4 21.0604 42.0416 20.6897 41.6 20.6897H40C39.5584 20.6897 39.2 21.0604 39.2 21.5172C39.2 21.9741 39.5584 22.3448 40 22.3448Z" fill="#6A151B"/>
<path d="M43.2 27.3103H41.6C41.1584 27.3103 40.8 27.6811 40.8 28.1379C40.8 28.5948 41.1584 28.9655 41.6 28.9655H43.2C43.6416 28.9655 44 28.5948 44 28.1379C44 27.6811 43.6416 27.3103 43.2 27.3103Z" fill="#6A151B"/>
<path d="M40 33.931H41.6C42.0416 33.931 42.4 33.5603 42.4 33.1035C42.4 32.6466 42.0416 32.2759 41.6 32.2759H40C39.5584 32.2759 39.2 32.6466 39.2 33.1035C39.2 33.5603 39.5584 33.931 40 33.931Z" fill="#6A151B"/>
<path d="M10.4 9.93104C10.4 9.47421 10.0416 9.10345 9.59998 9.10345H6.39998C5.95838 9.10345 5.59998 9.47421 5.59998 9.93104C5.59998 10.3879 5.95838 10.7586 6.39998 10.7586H9.59998C10.0416 10.7586 10.4 10.3879 10.4 9.93104Z" fill="#6A151B"/>
<path d="M40 5.79311H41.6C42.0416 5.79311 42.4 5.42235 42.4 4.96553C42.4 4.5087 42.0416 4.13794 41.6 4.13794H40C39.5584 4.13794 39.2 4.5087 39.2 4.96553C39.2 5.42235 39.5584 5.79311 40 5.79311Z" fill="#6A151B"/>
</svg>
