<svg width="48" height="48" viewBox="0 0 48 48" fill="none" xmlns="http://www.w3.org/2000/svg">
<path d="M46.4955 3.09808C45.924 1.51408 44.475 0.857353 43.383 1.69299L36.7815 6.75044C36.2385 7.16717 35.8365 7.86535 35.655 8.72063C35.5455 9.2399 35.5335 9.77444 35.5965 10.2959C34.812 11.0923 34.113 12.0304 34.0125 12.9184C33.9585 13.3941 33.9885 13.9592 34.023 14.6159C34.0905 15.8508 34.173 17.389 33.6225 17.9235C33.4695 18.0719 33.273 18.2486 33.045 18.445L30.771 15.1897C29.733 13.6952 27.9555 13.837 27.0285 15.4908L18.7635 30.3097C18.123 31.4617 18.1785 32.2908 18.342 32.7817C18.4365 33.0654 18.738 33.7264 19.536 33.7264C19.7295 33.7264 19.944 33.6872 20.175 33.613L36.018 28.3897C36.7935 28.1344 37.335 27.4821 37.5075 26.6006C37.6785 25.7192 37.4535 24.7504 36.8865 23.941L34.1145 19.9744C34.23 19.8697 34.3365 19.7715 34.4295 19.6821C35.6895 18.4603 35.559 16.045 35.472 14.4501C35.448 13.9984 35.421 13.4879 35.439 13.3155C35.5065 13.0821 35.8455 12.6501 36.309 12.1701C36.726 12.7264 37.269 13.0668 37.8555 13.0668C38.226 13.0668 38.5965 12.9315 38.928 12.6806L45.528 7.62317C46.0725 7.20644 46.4745 6.50608 46.656 5.65299C46.8405 4.79554 46.782 3.8879 46.4955 3.09808ZM35.8665 25.453C36.093 25.7759 36.114 25.9919 36.108 26.0268C36.1005 26.0617 36.006 26.2275 35.6955 26.3301L19.9665 31.5141L28.1595 16.8304C28.377 16.4399 28.674 16.2261 28.9935 16.2261C29.271 16.2261 29.538 16.3941 29.7525 16.6995L31.7325 19.5359C30.1845 20.7795 28.3995 22.1279 28.3725 22.1475C28.017 22.4159 27.876 23.0552 28.0605 23.5723C28.1895 23.9366 28.4445 24.1439 28.707 24.1439C28.821 24.1439 28.9335 24.1046 29.0415 24.0261C29.16 23.9344 31.1925 22.405 32.8155 21.0828L35.8665 25.453ZM45.2685 5.02244C45.201 5.33881 45.0525 5.59408 44.8515 5.74899L38.2515 10.8086C37.8435 11.1228 37.317 10.8741 37.104 10.2915C36.999 9.99917 36.9765 9.66317 37.0455 9.34899C37.1115 9.03481 37.2585 8.77735 37.4595 8.62244L44.061 3.56281C44.1855 3.46899 44.3175 3.42099 44.4555 3.42099C44.7735 3.42099 45.0615 3.67408 45.2085 4.08208C45.315 4.37226 45.336 4.70826 45.2685 5.02244Z" fill="#6A151B"/>
<path d="M30.8655 37.4488H26.9655V33.5433L25.506 34.0233V37.4466H18.8715V35.7208C18.2895 35.5397 17.7855 35.1361 17.418 34.5295V37.4466H10.782V32.459H15.411H16.7955C16.7535 31.8655 16.8075 31.1477 17.052 30.3448H16.1385V25.3571H18.147H19.656L20.835 23.2408H18.873V18.2488H23.619L24.798 16.1324H18.1455H10.0545H1.96501C1.56301 16.1324 1.23901 16.6059 1.23901 17.1906V45.6088C1.23901 46.1935 1.56451 46.667 1.96501 46.667H7.31851H15.411C15.4125 46.667 15.4125 46.667 15.4125 46.667H23.5005C23.502 46.667 23.502 46.667 23.502 46.667H31.5945C31.998 46.667 32.322 46.1935 32.322 45.6088V31.7761L30.867 32.2561V37.4488H30.8655ZM10.782 18.251H17.4195V23.243H10.782V18.251ZM14.6835 25.3593V30.347H8.04601V25.3593H10.0545H14.6835ZM2.69251 18.251H9.32851V23.243H2.69251V18.251ZM6.59251 25.3593V30.347H2.69401V25.3593H6.59251ZM6.59101 44.555H2.69251V39.563H6.59101V44.555ZM2.69251 37.4488V32.4611H7.32001H9.32851V37.4488H2.69251ZM14.682 44.555H8.04451V39.563H14.682V44.555ZM22.773 44.555H16.1385V39.563H22.773V44.555ZM30.8655 44.555H24.228V39.563H30.8655V44.555Z" fill="#6A151B"/>
</svg>
