<svg width="48" height="48" viewBox="0 0 48 48" fill="none" xmlns="http://www.w3.org/2000/svg">
<path d="M23.9999 23.5902C24.821 23.5902 25.5789 23.4731 26.3368 23.239L25.642 21.5999C24.6315 21.9512 23.3684 21.9512 22.3578 21.5999L21.6631 23.239C22.421 23.4731 23.1789 23.5902 23.9999 23.5902Z" fill="#6A151B"/>
<path d="M24 25.7561L22.6737 25.0536L21.0316 26.5171C21.0316 26.5171 22.4211 27.4536 24.0632 27.4536C25.3895 27.4536 27.0948 26.5171 27.0948 26.5171L25.4527 25.0536L24 25.7561Z" fill="#6A151B"/>
<path d="M18.7579 19.6682H20.6527V18.556C21.2842 18.6146 21.6632 18.7902 21.7263 18.7902L22.3579 17.1512C22.2316 17.0926 18.8211 15.9804 15.8527 17.7365L16.8632 19.1999C17.4948 18.8487 18.1263 18.6146 18.7579 18.556V19.6682Z" fill="#6A151B"/>
<path d="M27.3474 18.5561V19.6683H29.2421V18.5561C29.8737 18.6731 30.5052 18.8488 31.1368 19.2L32.1474 17.7366C29.1789 15.9219 25.7684 17.0927 25.6421 17.1512L26.2737 18.7902C26.3368 18.7902 26.7158 18.6731 27.3474 18.5561Z" fill="#6A151B"/>
<path d="M5.49474 41.9707V47.1805H7.38948V40.9171C7.9579 40.6244 8.52632 40.3317 9.09474 40.039C10.2316 39.5122 11.3684 38.9268 12.5053 38.2829L15.979 47.4732L17.7474 46.8878L14.0842 37.2293C14.5895 36.878 15.0316 36.5268 15.4737 36.1171C16.9895 36.9951 19.7684 38.0488 24 38.0488C28.2316 38.0488 31.0105 36.9951 32.5263 36.1756C32.9684 36.5854 33.4105 36.9366 33.9158 37.2878L30.2526 46.9463L32.0211 47.5317L35.4947 38.3414C36.6316 38.9854 37.7684 39.5707 38.9053 40.0975C39.4737 40.3902 40.0421 40.6829 40.6105 40.9756V47.239H42.5053V42.0293C44.4632 43.3171 45.7895 44.7805 45.7895 47.239H47.6842C47.6842 42.3805 43.6421 40.4488 39.7895 38.5171C38.6526 37.9317 37.4526 37.4049 36.379 36.7024C36.3158 33.9512 35.5579 32.4293 34.8632 30.9073C34.2316 29.561 33.6 28.2732 33.6 25.9317C34.0421 25.1707 34.3579 24.4097 34.5474 23.7658C36.6947 23.4146 37.3895 21.7171 37.7684 20.2536C38.0842 18.9658 38.0842 16.8 36.8842 15.6878H37.3895V10.8878H36.3158C36.3158 9.36584 35.8737 6.2634 33.5368 3.80486C31.3895 1.58047 28.1684 0.468277 24 0.468277C19.8316 0.468277 16.6105 1.58047 14.4632 3.80486C12.0632 6.2634 11.6842 9.36584 11.6842 10.8878H10.6105V15.6878H11.1158C9.9158 16.8 9.9158 18.9658 10.2316 20.2536C10.6105 21.7756 11.3684 23.4732 13.4526 23.7658C13.6421 24.4097 13.9579 25.1707 14.4 25.9317C14.4 28.2732 13.7684 29.561 13.1368 30.9073C12.4421 32.3707 11.7474 33.8927 11.6211 36.7024C10.5474 37.3463 9.34737 37.9317 8.21053 38.5171C4.3579 40.3902 0.315796 42.3805 0.315796 47.239H2.21053C2.21053 44.7219 3.53685 43.2585 5.49474 41.9707ZM35.4947 12.6439V13.9317H12.5053V12.6439H35.4947ZM15.1579 22.7122V15.7463H32.8421V22.7122C32.8421 23.6488 31.7684 25.8732 29.8105 28.039C27.7895 30.2634 25.6421 31.5512 24 31.5512C22.3579 31.5512 20.1474 30.2634 18.1895 28.039C16.1684 25.8732 15.1579 23.6488 15.1579 22.7122ZM36 19.8439C35.6842 21.0732 35.2421 21.6585 34.7369 21.9512V17.0341C34.9895 16.9171 35.3053 16.8 35.4947 16.9171C36 17.2683 36.3158 18.6146 36 19.8439ZM15.7895 4.91706C16.9895 3.74633 18.5684 2.92681 20.5263 2.51706V7.08291H22.4211V2.22437C22.9263 2.16584 23.4316 2.16584 24 2.16584C24.5684 2.16584 25.0737 2.16584 25.579 2.22437V7.08291H27.4737V2.51706C29.4316 2.92681 31.0105 3.74633 32.2105 4.91706C34.1684 6.9073 34.5474 9.59998 34.5474 10.8878H13.4526C13.4526 9.59998 13.8316 6.96584 15.7895 4.91706ZM12 19.8439C11.6842 18.5561 11.9368 17.2097 12.4421 16.9171C12.6316 16.8 12.9474 16.8585 13.2 17.0341V21.9512C12.7579 21.6585 12.3158 21.0732 12 19.8439ZM14.8421 31.6683C15.2842 30.6732 15.7895 29.678 16.0421 28.3317C18.1895 30.9073 21.2211 33.2488 24 33.2488C26.779 33.2488 29.8105 30.9073 31.9579 28.3317C32.2105 29.678 32.7158 30.6732 33.1579 31.6683C33.6632 32.7219 34.1684 33.7756 34.3579 35.3561C33.0316 34.3024 32.0211 33.0146 31.3895 31.3171L29.6211 31.9024C30.0632 33.0146 30.6316 34.0097 31.3263 34.8878C29.9368 35.4732 27.6 36.2927 24 36.2927C20.4 36.2927 18.0632 35.4732 16.7368 34.8293C17.4316 33.9512 18 33.0146 18.4421 31.8439L16.6737 31.2585C16.0421 32.9561 14.9684 34.2439 13.7053 35.2976C13.8316 33.7756 14.3368 32.7219 14.8421 31.6683Z" fill="#6A151B"/>
</svg>
