<svg width="48" height="48" viewBox="0 0 48 48" fill="none" xmlns="http://www.w3.org/2000/svg">
<path d="M47 0H1C0.447754 0 0 0.447266 0 1V6.98535C0 7.53809 0.447754 7.98535 1 7.98535H3.37451V46H1C0.447754 46 0 46.4473 0 47C0 47.5527 0.447754 48 1 48H4.37451H43.625H47C47.5527 48 48 47.5527 48 47C48 46.4473 47.5527 46 47 46H44.625V7.98535H47C47.5527 7.98535 48 7.53809 48 6.98535V1C48 0.447266 47.5527 0 47 0ZM27.4961 44.002C26.834 44.9059 25.8832 45.5249 24.8084 45.8127C24.223 45.9108 23.6276 45.9658 23.0212 45.9734C22.8505 45.9605 22.6799 45.95 22.5078 45.9209L22.4962 45.9899C22.4724 45.9891 22.4488 45.9886 22.4249 45.9877L22.4321 45.9072C21.1899 45.6836 20.2231 44.8154 19.8457 43.584C19.4595 42.3223 19.7842 41.0283 20.7148 40.1211C20.8867 39.9541 21.0605 39.79 21.2339 39.626C22.5337 38.3984 23.9624 37.0479 24.5083 34.417L27.8711 39.8291C28.5723 41.1982 28.4355 42.7197 27.4961 44.002ZM29.6104 38.8457L24.5679 30.7227C24.3271 30.335 23.8521 30.1562 23.4204 30.2959C22.9849 30.4316 22.6968 30.8447 22.7197 31.2998C22.9175 35.2842 21.5005 36.623 19.8604 38.1729C19.6792 38.3438 19.4985 38.5146 19.3193 38.6895C17.8633 40.1074 17.3325 42.208 17.9336 44.1699C18.0085 44.4146 18.1 44.6506 18.2055 44.8777C16.5695 43.9301 15.3287 42.3982 14.7354 40.4609C13.8643 37.6162 14.6294 34.5752 16.7319 32.5264C17.0801 32.1875 17.4312 31.8555 17.7822 31.5244C20.8042 28.668 23.9146 25.7295 24.4077 18.96L32.6318 32.2021C34.1895 35.2441 33.8779 38.7549 31.7998 41.5938C31.2754 42.3102 30.6566 42.9301 29.9867 43.4822C30.4914 41.985 30.3863 40.3563 29.6104 38.8457ZM42.625 46H29.9255C31.2645 45.1628 32.4542 44.0851 33.4131 42.7754C35.9482 39.3135 36.3213 35.0195 34.3711 31.2188L24.2856 14.9727C24.0449 14.585 23.5718 14.4062 23.1382 14.5459C22.7026 14.6816 22.4146 15.0947 22.4375 15.5498C22.8564 23.9775 19.7246 26.9365 16.4087 30.0703C16.0503 30.4092 15.6914 30.748 15.3364 31.0947C12.6948 33.668 11.7314 37.4814 12.8232 41.0469C13.4533 43.1046 14.6717 44.7965 16.2914 46H5.37451V7.98535H42.625V46ZM46 5.98535H43.625H4.37451H2V2H46V5.98535Z" fill="#6A151B"/>
</svg>
