<svg width="48" height="48" viewBox="0 0 48 48" fill="none" xmlns="http://www.w3.org/2000/svg">
<g clip-path="url(#clip0)">
<path d="M22.0404 44H1.00037C0.692371 44 0.402371 43.858 0.212371 43.616C0.0223709 43.372 -0.0456291 43.058 0.0283709 42.758L1.10837 38.418C1.65237 36.26 3.23037 34.56 5.32637 33.87L13.3624 31.192C14.5544 30.694 15.2984 28.898 15.3744 26.25C14.4544 25.414 12.4804 23.374 12.4804 21.282C12.4804 20.548 12.2344 20.398 12.2324 20.396C11.9284 20.314 11.7684 20.126 11.6504 19.832C11.5504 19.58 10.6804 17.348 10.6804 15.84C10.6804 15.76 10.6904 15.68 10.7104 15.602C10.8364 15.084 11.1404 14.564 11.5984 14.248C11.6104 14.008 11.6244 13.742 11.6404 13.446C11.6904 12.458 11.7604 11.14 11.7604 9.5C11.7604 5.748 16.3484 0 22.0004 0C27.1144 0 29.5904 2.724 30.0004 4.484C31.2504 5.176 32.3404 6.318 32.3404 9.5V14.254C32.8364 14.596 33.1424 15.144 33.2704 15.522C33.3044 15.624 33.3204 15.732 33.3204 15.84C33.3204 16.392 32.8724 16.88 32.3204 16.88C31.8184 16.88 31.4044 16.544 31.3324 16.07C31.2944 16 31.2464 15.93 31.2144 15.906C30.6644 15.906 30.3384 15.492 30.3384 14.94V9.5C30.3384 6.89 29.5004 6.468 29.0004 6.218C28.6984 6.064 28.0604 5.744 28.0604 4.98C28.0244 4.378 26.3404 2 22.0004 2C17.2404 2 13.7604 6.932 13.7604 9.5C13.7604 11.184 13.6904 12.536 13.6344 13.55C13.6064 14.128 13.5804 14.594 13.5804 14.94C13.5804 15.458 13.1864 15.884 12.6824 15.936C12.7144 16.756 13.1244 18.042 13.3864 18.76C13.9224 19.14 14.4804 19.916 14.4804 21.28C14.4804 22.408 15.7964 24.014 17.0204 25.03C17.2484 25.22 17.3804 25.502 17.3804 25.8C17.3804 29.596 16.2024 32.176 14.0624 33.064L5.95637 35.77C4.50837 36.248 3.42237 37.42 3.04837 38.906L2.28037 42H22.0404C22.5924 42 23.0404 42.448 23.0404 43C23.0404 43.552 22.5924 44 22.0404 44Z" fill="#6A151B"/>
<path d="M36 47.9999C35.868 47.9999 35.736 47.9739 35.612 47.9199C35.136 47.7219 24 42.9079 24 33.0719V24.7139C24 24.2859 24.274 23.9039 24.68 23.7659L35.68 20.0519C35.888 19.9819 36.114 19.9819 36.32 20.0519L47.32 23.7659C47.726 23.9019 48 24.2839 48 24.7139V33.0719C48 42.9079 36.864 47.7219 36.388 47.9219C36.264 47.9739 36.132 47.9999 36 47.9999ZM26 25.4319V33.0719C26 40.6419 34.11 44.9879 36 45.8999C37.888 44.9859 46 40.6239 46 33.0719V25.4319L36 22.0559L26 25.4319Z" fill="#6A151B"/>
<path d="M34.9999 37.9999C34.9819 37.9999 34.9619 37.9999 34.9459 37.9979C34.6599 37.9819 34.3979 37.8459 34.2199 37.6239L30.2199 32.6239C29.8759 32.1919 29.9439 31.5639 30.3759 31.2179C30.8099 30.8739 31.4379 30.9459 31.7819 31.3739L35.0819 35.5019L41.2919 29.2919C41.6819 28.9019 42.3159 28.9019 42.7059 29.2919C43.0959 29.6819 43.0959 30.3159 42.7059 30.7059L35.7059 37.7059C35.5199 37.8959 35.2639 37.9999 34.9999 37.9999Z" fill="#6A151B"/>
</g>
<defs>
<clipPath id="clip0">
<rect width="48" height="48" fill="white"/>
</clipPath>
</defs>
</svg>
