<svg width="48" height="48" viewBox="0 0 48 48" fill="none" xmlns="http://www.w3.org/2000/svg">
<path d="M36.75 48.0001H11.25C10.8 48.0001 10.5 47.7001 10.5 47.2501V19.5001C10.5 19.2751 10.575 19.1251 10.725 18.9751C15.6 14.1001 32.475 14.1001 37.275 18.9751C37.425 19.1251 37.5 19.2751 37.5 19.5001V47.2501C37.5 47.7001 37.2 48.0001 36.75 48.0001ZM12 46.5001H36V19.8001C31.575 15.8251 16.425 15.8251 12 19.8001V46.5001Z" fill="#6A151B"/>
<path d="M11.25 48H3.75C3.3 48 3 47.7 3 47.25V5.25C3 4.8 3.3 4.5 3.75 4.5C4.2 4.5 4.5 4.8 4.5 5.25V46.5H11.25C11.7 46.5 12 46.8 12 47.25C12 47.7 11.7 48 11.25 48Z" fill="#6A151B"/>
<path d="M44.25 48H36.75C36.3 48 36 47.7 36 47.25C36 46.8 36.3 46.5 36.75 46.5H43.5V5.25C43.5 4.8 43.8 4.5 44.25 4.5C44.7 4.5 45 4.8 45 5.25V47.25C45 47.7 44.7 48 44.25 48Z" fill="#6A151B"/>
<path d="M47.25 6H0.75C0.3 6 0 5.7 0 5.25V0.75C0 0.3 0.3 0 0.75 0H47.25C47.7 0 48 0.3 48 0.75V5.25C48 5.7 47.7 6 47.25 6ZM1.5 4.5H46.5V1.5H1.5V4.5Z" fill="#6A151B"/>
<path d="M17.4749 36.1501C17.1749 36.1501 16.8749 36.0001 16.7999 35.7001C16.1249 34.2001 15.9749 32.7751 16.3499 31.5751C16.5749 30.8251 16.9499 30.3001 17.3249 29.8501C17.6249 29.4001 17.9249 29.1001 18.0749 28.5001C18.2999 27.7501 18.1499 26.8501 17.7749 25.8751C17.6249 25.5751 17.7749 25.2001 17.9999 24.9751C18.2999 24.7501 18.6749 24.8251 18.9749 25.0501C19.7999 25.8001 20.5499 26.7751 21.0749 27.7501C21.6749 28.8751 22.1249 30.1501 22.2749 31.4251C22.3499 31.8001 22.0499 32.2501 21.5999 32.2501C21.1499 32.3251 20.7749 32.0251 20.7749 31.5751C20.6249 30.4501 20.2499 29.4001 19.7249 28.4251C19.7249 28.3501 19.6499 28.2751 19.5749 28.2001C19.5749 28.4251 19.4999 28.6501 19.4249 28.8001C19.1999 29.6251 18.8249 30.2251 18.4499 30.6751C18.1499 31.0501 17.9249 31.4251 17.7749 31.9501C17.5499 32.8501 17.6249 33.8251 18.1499 35.0251C18.2999 35.4001 18.1499 35.8501 17.7749 36.0001C17.6999 36.1501 17.5499 36.1501 17.4749 36.1501Z" fill="#6A151B"/>
<path d="M30.525 36.6C30.45 36.6 30.375 36.6 30.3 36.525C29.925 36.375 29.7 36 29.85 35.55C30.225 34.35 30.6 32.4 30.075 30.225C29.775 29.175 29.4 28.275 28.95 27.6C28.725 28.05 28.425 28.425 28.125 28.725C27.675 29.175 27.225 29.55 26.625 29.85C26.325 30 26.025 29.925 25.8 29.775C24.975 29.025 23.775 27.675 23.1 25.725C22.8 24.9 22.65 24.15 22.575 23.475C22.5 23.55 22.5 23.625 22.425 23.625C21.825 24.525 21.675 25.425 21.525 25.875C21.3 27.075 21.375 28.35 21.825 29.625L21.9 29.85C22.05 30.225 21.825 30.675 21.375 30.75C21 30.9 20.55 30.675 20.475 30.225V30.15C20.475 30.075 20.475 30 20.4 30C19.875 28.5 19.8 26.925 20.1 25.5C20.175 25.05 20.4 23.925 21.225 22.725C21.675 22.05 22.275 21.525 22.875 21C23.1 20.85 23.4 20.85 23.7 21C23.925 21.15 24.075 21.45 24.075 21.75C24 22.575 24 23.775 24.525 25.125C25.05 26.475 25.8 27.525 26.475 28.2C26.7 28.05 26.925 27.9 27.15 27.675C27.75 27.075 28.05 26.325 28.2 25.875C28.275 25.575 28.5 25.425 28.725 25.35C29.025 25.275 29.25 25.35 29.475 25.575C30.15 26.4 31.125 27.825 31.65 29.775C32.325 32.325 31.875 34.575 31.425 36C31.125 36.375 30.825 36.6 30.525 36.6Z" fill="#6A151B"/>
<path d="M15.75 43.5C15.525 43.5 15.375 43.425 15.225 43.275C14.925 42.975 15 42.525 15.3 42.225L23.55 34.725C23.85 34.425 24.3 34.5 24.6 34.8C24.9 35.1 24.825 35.55 24.525 35.85L16.275 43.35C16.125 43.425 15.9 43.5 15.75 43.5Z" fill="#6A151B"/>
<path d="M30.75 43.5C30.525 43.5 30.375 43.425 30.225 43.275L23.475 35.775C23.175 35.475 23.25 35.025 23.55 34.725C23.85 34.425 24.3 34.5 24.6 34.8L31.35 42.3C31.65 42.6 31.575 43.05 31.275 43.35C31.125 43.425 30.9 43.5 30.75 43.5Z" fill="#6A151B"/>
<path d="M23.25 43.2H23.175C22.8 43.125 22.5 42.825 22.5 42.375L23.25 35.175C23.325 34.8 23.625 34.425 24.075 34.5C24.45 34.575 24.75 34.875 24.75 35.325L24 42.525C23.925 42.9 23.625 43.2 23.25 43.2Z" fill="#6A151B"/>
</svg>
