<svg width="53" height="53" viewBox="0 0 53 53" fill="none" xmlns="http://www.w3.org/2000/svg">
<path d="M14.3327 36.2933C23.0198 36.2149 31.3243 32.7088 37.4393 26.5381C43.5542 20.3673 46.9847 12.0313 46.9842 3.34386C46.9842 2.63523 47.2657 1.95563 47.7668 1.45456C48.2679 0.953484 48.9475 0.671982 49.6561 0.671982C50.3647 0.671982 51.0443 0.953484 51.5454 1.45456C52.0465 1.95563 52.328 2.63523 52.328 3.34386C52.3373 13.4528 48.3453 23.1546 41.2243 30.3297C34.1033 37.5048 24.432 41.57 14.3232 41.6372L10.7654 38.9689L14.3327 36.2933ZM15.9905 26.1439L1.7405 36.8314C1.40866 37.0802 1.13933 37.403 0.953823 37.774C0.768322 38.145 0.671745 38.5541 0.671745 38.9689C0.671745 39.3837 0.768322 39.7928 0.953823 40.1638C1.13933 40.5348 1.40866 40.8575 1.7405 41.1064L15.9905 51.7939C16.5574 52.219 17.27 52.4016 17.9715 52.3014C18.673 52.2012 19.3059 51.8264 19.7311 51.2595C20.1563 50.6926 20.3389 49.98 20.2386 49.2785C20.1384 48.577 19.7636 47.944 19.1967 47.5189L7.79675 38.9689L19.1967 30.4189C19.4774 30.2083 19.7139 29.9446 19.8927 29.6427C20.0715 29.3407 20.189 29.0066 20.2386 28.6592C20.2883 28.3119 20.269 27.9581 20.1819 27.6183C20.0948 27.2784 19.9416 26.9589 19.7311 26.6782C19.3059 26.1113 18.673 25.7366 17.9715 25.6363C17.6241 25.5867 17.2704 25.606 16.9305 25.6931C16.5906 25.7802 16.2712 25.9333 15.9905 26.1439Z" fill="#8E7056"/>
</svg>
