<svg width="26" height="26" viewBox="0 0 26 26" fill="none" xmlns="http://www.w3.org/2000/svg">
<path d="M15.9388 13L24.8972 4.06248C25.2895 3.67018 25.5099 3.13811 25.5099 2.58331C25.5099 2.02852 25.2895 1.49645 24.8972 1.10415C24.5049 0.711847 23.9728 0.491455 23.418 0.491455C22.8632 0.491455 22.3311 0.711847 21.9388 1.10415L13.0013 10.0625L4.06384 1.10415C3.67154 0.711847 3.13947 0.491455 2.58467 0.491455C2.02988 0.491455 1.4978 0.711847 1.1055 1.10415C0.713205 1.49645 0.492813 2.02852 0.492813 2.58331C0.492813 3.13811 0.713205 3.67018 1.1055 4.06248L10.0638 13L1.1055 21.9375C0.910237 22.1312 0.755249 22.3616 0.649481 22.6154C0.543713 22.8693 0.489258 23.1416 0.489258 23.4166C0.489258 23.6917 0.543713 23.964 0.649481 24.2178C0.755249 24.4717 0.910237 24.7021 1.1055 24.8958C1.29918 25.0911 1.5296 25.2461 1.78347 25.3518C2.03734 25.4576 2.30965 25.5121 2.58467 25.5121C2.8597 25.5121 3.132 25.4576 3.38587 25.3518C3.63975 25.2461 3.87017 25.0911 4.06384 24.8958L13.0013 15.9375L21.9388 24.8958C22.1325 25.0911 22.3629 25.2461 22.6168 25.3518C22.8707 25.4576 23.143 25.5121 23.418 25.5121C23.693 25.5121 23.9653 25.4576 24.2192 25.3518C24.4731 25.2461 24.7035 25.0911 24.8972 24.8958C25.0924 24.7021 25.2474 24.4717 25.3532 24.2178C25.459 23.964 25.5134 23.6917 25.5134 23.4166C25.5134 23.1416 25.459 22.8693 25.3532 22.6154C25.2474 22.3616 25.0924 22.1312 24.8972 21.9375L15.9388 13Z" fill="#3E3A3A"/>
</svg>
