<svg width="34" height="34" viewBox="0 0 34 34" fill="none" xmlns="http://www.w3.org/2000/svg">
<g clip-path="url(#clip0)">
<path d="M28.3333 0H5.66667C4.16377 0 2.72243 0.597022 1.65973 1.65973C0.597022 2.72243 0 4.16377 0 5.66667L0 28.3333C0 29.8362 0.597022 31.2776 1.65973 32.3403C2.72243 33.403 4.16377 34 5.66667 34H28.3333C29.8362 34 31.2776 33.403 32.3403 32.3403C33.403 31.2776 34 29.8362 34 28.3333V5.66667C34 4.16377 33.403 2.72243 32.3403 1.65973C31.2776 0.597022 29.8362 0 28.3333 0V0ZM31.1667 28.3333C31.1667 29.0848 30.8682 29.8054 30.3368 30.3368C29.8054 30.8682 29.0848 31.1667 28.3333 31.1667H5.66667C4.91522 31.1667 4.19455 30.8682 3.6632 30.3368C3.13184 29.8054 2.83333 29.0848 2.83333 28.3333V5.66667C2.83333 4.91522 3.13184 4.19455 3.6632 3.6632C4.19455 3.13184 4.91522 2.83333 5.66667 2.83333H28.3333C29.0848 2.83333 29.8054 3.13184 30.3368 3.6632C30.8682 4.19455 31.1667 4.91522 31.1667 5.66667V28.3333Z" fill="#C39A7E"/>
<path d="M17 8.5C15.3189 8.5 13.6755 8.99852 12.2777 9.93251C10.8798 10.8665 9.79037 12.194 9.14703 13.7472C8.50368 15.3004 8.33535 17.0094 8.66333 18.6583C8.9913 20.3071 9.80085 21.8217 10.9896 23.0104C12.1783 24.1992 13.6929 25.0087 15.3417 25.3367C16.9906 25.6646 18.6996 25.4963 20.2528 24.853C21.806 24.2096 23.1335 23.1202 24.0675 21.7223C25.0015 20.3245 25.5 18.6811 25.5 17C25.5 14.7457 24.6045 12.5837 23.0104 10.9896C21.4164 9.39553 19.2543 8.5 17 8.5ZM17 22.6667C15.8792 22.6667 14.7837 22.3343 13.8518 21.7117C12.9199 21.089 12.1936 20.204 11.7647 19.1685C11.3358 18.1331 11.2236 16.9937 11.4422 15.8945C11.6609 14.7953 12.2006 13.7856 12.9931 12.9931C13.7856 12.2006 14.7953 11.6609 15.8945 11.4422C16.9937 11.2236 18.1331 11.3358 19.1685 11.7647C20.204 12.1936 21.089 12.9199 21.7117 13.8518C22.3343 14.7836 22.6667 15.8792 22.6667 17C22.6667 18.5029 22.0696 19.9442 21.0069 21.0069C19.9442 22.0696 18.5029 22.6667 17 22.6667Z" fill="#C39A7E"/>
<path d="M26.2083 9.91675C27.3819 9.91675 28.3333 8.96535 28.3333 7.79175C28.3333 6.61814 27.3819 5.66675 26.2083 5.66675C25.0346 5.66675 24.0833 6.61814 24.0833 7.79175C24.0833 8.96535 25.0346 9.91675 26.2083 9.91675Z" fill="#C39A7E"/>
</g>
<defs>
<clipPath id="clip0">
<rect width="34" height="34" fill="white"/>
</clipPath>
</defs>
</svg>
